<svg width="8" height="14" viewBox="0 0 8 14" fill="none" xmlns="http://www.w3.org/2000/svg">
<path d="M7.17533 13.8601L7.8625 13.1588C7.95426 13.0653 8 12.9576 8 12.8359C8 12.7145 7.95426 12.6069 7.8625 12.5135L2.46049 7.00007L7.86235 1.48692C7.95412 1.39342 7.99986 1.28582 7.99986 1.16425C7.99986 1.04265 7.95412 0.93504 7.86235 0.841585L7.17513 0.14033C7.08356 0.0466783 6.97812 0 6.85897 0C6.7399 0 6.63447 0.0468257 6.54289 0.14033L0.137405 6.6774C0.0457854 6.77086 0 6.87851 0 7.00007C0 7.12163 0.0457854 7.22909 0.137405 7.3225L6.54289 13.8601C6.63451 13.9536 6.73995 14 6.85897 14C6.97812 14 7.08356 13.9536 7.17533 13.8601Z" fill="black"/>
</svg>
