<svg width="8" height="14" viewBox="0 0 8 14" fill="none" xmlns="http://www.w3.org/2000/svg">
<path d="M0.824674 13.8601L0.137502 13.1588C0.0457377 13.0653 0 12.9576 0 12.8359C0 12.7145 0.0457377 12.6069 0.137502 12.5135L5.53951 7.00007L0.137646 1.48692C0.0458821 1.39342 0.000144435 1.28582 0.000144435 1.16425C0.000144435 1.04265 0.0458821 0.93504 0.137646 0.841585L0.824867 0.14033C0.916438 0.0466783 1.02188 0 1.14103 0C1.2601 0 1.36553 0.0468257 1.45711 0.14033L7.86259 6.6774C7.95421 6.77086 8 6.87851 8 7.00007C8 7.12163 7.95421 7.22909 7.86259 7.3225L1.45711 13.8601C1.36549 13.9536 1.26005 14 1.14103 14C1.02188 14 0.916438 13.9536 0.824674 13.8601Z" fill="black"/>
</svg>
