<svg width="24" height="24" viewBox="0 0 24 24" fill="none" xmlns="http://www.w3.org/2000/svg">
<path d="M10.0801 19.232C12.0647 19.2413 13.9978 18.6006 15.5841 17.408L21.2481 23.072L23.0721 21.248L17.3761 15.584C18.6168 13.9357 19.2642 11.9166 19.2133 9.85419C19.1624 7.79178 18.4162 5.80707 17.0957 4.22201C15.7752 2.63696 13.9579 1.54455 11.9386 1.12201C9.91929 0.699464 7.81646 0.971573 5.97122 1.89419C4.12598 2.81681 2.64659 4.33581 1.77305 6.20478C0.899499 8.07375 0.68304 10.183 1.15878 12.1905C1.63453 14.1979 2.77456 15.9857 4.39395 17.2639C6.01334 18.542 8.01708 19.2356 10.0801 19.232ZM5.40811 5.40798C6.64392 4.17494 8.31837 3.48247 10.0641 3.48247C11.8098 3.48247 13.4843 4.17494 14.7201 5.40798C15.6435 6.32929 16.2728 7.50385 16.5284 8.78298C16.7839 10.0621 16.6542 11.3883 16.1557 12.5937C15.6572 13.7991 14.8123 14.8295 13.728 15.5545C12.6436 16.2795 11.3685 16.6665 10.0641 16.6665C8.7597 16.6665 7.48462 16.2795 6.40025 15.5545C5.31588 14.8295 4.47097 13.7991 3.97248 12.5937C3.47398 11.3883 3.3443 10.0621 3.59986 8.78298C3.85542 7.50385 4.48472 6.32929 5.40811 5.40798Z" fill="black"/>
</svg>
