<svg width="16" height="17" viewBox="0 0 16 17" fill="none" xmlns="http://www.w3.org/2000/svg">
<path d="M8 8.5C10.525 8.5 12.5714 6.59746 12.5714 4.25C12.5714 1.90254 10.525 0 8 0C5.475 0 3.42857 1.90254 3.42857 4.25C3.42857 6.59746 5.475 8.5 8 8.5ZM11.2 9.5625H10.6036C9.81071 9.90117 8.92857 10.0938 8 10.0938C7.07143 10.0938 6.19286 9.90117 5.39643 9.5625H4.8C2.15 9.5625 0 11.5613 0 14.025V15.4062C0 16.2861 0.767857 17 1.71429 17H14.2857C15.2321 17 16 16.2861 16 15.4062V14.025C16 11.5613 13.85 9.5625 11.2 9.5625Z" fill="#D0D0D0"/>
</svg>
