<svg xmlns="http://www.w3.org/2000/svg" width="28.906" height="22.813" viewBox="0 0 28.906 22.813">
  <metadata><?xpacket begin="﻿" id="W5M0MpCehiHzreSzNTczkc9d"?>
<x:xmpmeta xmlns:x="adobe:ns:meta/" x:xmptk="Adobe XMP Core 5.6-c142 79.160924, 2017/07/13-01:06:39        ">
   <rdf:RDF xmlns:rdf="http://www.w3.org/1999/02/22-rdf-syntax-ns#">
      <rdf:Description rdf:about=""/>
   </rdf:RDF>
</x:xmpmeta>
                                                                                                    
                                                                                                    
                                                                                                    
                                                                                                    
                                                                                                    
                                                                                                    
                                                                                                    
                                                                                                    
                                                                                                    
                                                                                                    
                                                                                                    
                                                                                                    
                                                                                                    
                                                                                                    
                                                                                                    
                                                                                                    
                                                                                                    
                                                                                                    
                                                                                                    
                                                                                                    
                           
<?xpacket end="w"?></metadata>
<defs>
    <style>
      .cls-1 {
        fill-rule: evenodd;
      }
    </style>
  </defs>
  <path id="archive" class="cls-1" d="M276.638,33.125l5.255,1.375a0.884,0.884,0,0,1,.641,1.084l-5.4,19.663a0.909,0.909,0,0,1-1.11.625L270.771,54.5a0.884,0.884,0,0,1-.642-1.084l5.4-19.663A0.91,0.91,0,0,1,276.638,33.125Zm7.854,0.311h5.441a0.9,0.9,0,0,1,.906.885V54.677a0.9,0.9,0,0,1-.906.885h-5.441a0.9,0.9,0,0,1-.906-0.885V34.32A0.9,0.9,0,0,1,284.492,33.436Zm8.161,0h5.44a0.9,0.9,0,0,1,.907.885V54.677a0.9,0.9,0,0,1-.907.885h-5.44a0.9,0.9,0,0,1-.907-0.885V34.32A0.9,0.9,0,0,1,292.653,33.436ZM275.7,36.545l5.255,1.375-2.816,10.259L272.883,46.8Zm8.793,0.431h5.441V47.6h-5.441V36.976Zm8.161,0h5.44V47.6h-5.44V36.976Zm-17.48,11.744a2.65,2.65,0,0,1,1.923,3.253,2.727,2.727,0,0,1-3.331,1.877,2.649,2.649,0,0,1-1.924-3.252A2.729,2.729,0,0,1,275.173,48.719Zm12.039,0.15a2.656,2.656,0,1,1-2.72,2.655A2.689,2.689,0,0,1,287.212,48.869Zm8.161,0.055a2.656,2.656,0,1,1-2.72,2.655A2.688,2.688,0,0,1,295.373,48.924Zm0,1.327a1.328,1.328,0,1,1-1.36,1.328A1.344,1.344,0,0,1,295.373,50.252Zm-8.161,0a1.328,1.328,0,1,1-1.36,1.328A1.344,1.344,0,0,1,287.212,50.252Zm-12.406-.2a1.324,1.324,0,0,1,.962,1.625,1.363,1.363,0,0,1-1.666.938,1.325,1.325,0,0,1-.962-1.625A1.364,1.364,0,0,1,274.806,50.056Zm18.753-12.2h3.627v0.886h-3.627V37.861Zm0,1.77h3.627v0.885h-3.627V39.631Zm0,1.771h3.627v0.885h-3.627V41.4Zm-8.16-3.541h3.627v0.886H285.4V37.861Zm0,1.77h3.627v0.885H285.4V39.631Zm0,1.771h3.627v0.885H285.4V41.4Zm-9.059-3.773,3.5,0.916-0.234.855-3.5-.916Zm-0.469,1.71,3.5,0.916-0.235.855-3.5-.916Zm-0.47,1.711,3.5,0.916-0.235.855-3.5-.916Z" transform="translate(-270.094 -33.094)"/>
</svg>
