<svg 
 xmlns="http://www.w3.org/2000/svg"
 xmlns:xlink="http://www.w3.org/1999/xlink"
 width="26px" height="6px">
<path fill-rule="evenodd"  fill="rgb(194, 194, 194)"
 d="M23.000,6.000 C21.343,6.000 20.000,4.657 20.000,3.000 C20.000,1.343 21.343,-0.000 23.000,-0.000 C24.657,-0.000 26.000,1.343 26.000,3.000 C26.000,4.657 24.657,6.000 23.000,6.000 ZM13.000,6.000 C11.343,6.000 10.000,4.657 10.000,3.000 C10.000,1.343 11.343,-0.000 13.000,-0.000 C14.657,-0.000 16.000,1.343 16.000,3.000 C16.000,4.657 14.657,6.000 13.000,6.000 ZM3.000,6.000 C1.343,6.000 -0.000,4.657 -0.000,3.000 C-0.000,1.343 1.343,-0.000 3.000,-0.000 C4.657,-0.000 6.000,1.343 6.000,3.000 C6.000,4.657 4.657,6.000 3.000,6.000 Z"/>
</svg>