<svg 
 xmlns="http://www.w3.org/2000/svg"
 xmlns:xlink="http://www.w3.org/1999/xlink"
 width="44px" height="44px">
<path fill-rule="evenodd"  fill="rgb(62, 62, 62)"
 d="M44.000,21.998 L44.000,21.998 C43.999,9.869 34.131,-0.001 22.000,-0.001 C9.869,-0.001 -0.000,9.869 -0.000,21.999 C-0.000,34.130 9.869,43.999 22.000,43.999 C34.131,43.999 44.000,34.130 44.000,21.999 L44.000,21.998 L44.000,21.998 ZM40.894,25.639 L32.887,23.494 C32.892,23.454 32.899,23.414 32.905,23.373 L41.180,23.373 C41.126,24.141 41.036,24.898 40.894,25.639 ZM39.295,30.397 L32.139,26.265 C32.154,26.229 32.165,26.189 32.180,26.152 L40.172,28.292 C39.921,29.016 39.627,29.716 39.295,30.397 ZM3.106,18.361 L11.113,20.507 C11.108,20.547 11.101,20.585 11.095,20.624 L2.820,20.624 C2.874,19.858 2.963,19.101 3.106,18.361 ZM4.705,13.603 L11.861,17.733 C11.845,17.771 11.834,17.811 11.819,17.849 L3.827,15.708 C4.078,14.985 4.373,14.284 4.705,13.603 ZM40.172,15.707 L32.181,17.848 C32.165,17.810 32.154,17.771 32.139,17.733 L39.295,13.601 C39.627,14.283 39.921,14.984 40.172,15.707 ZM22.000,20.624 C20.116,20.624 19.135,21.670 18.419,22.433 C17.807,23.086 17.508,23.375 16.842,23.375 C16.178,23.375 15.880,23.086 15.269,22.434 C14.883,22.021 14.421,21.543 13.792,21.178 C13.844,20.644 13.951,20.126 14.101,19.627 C14.742,20.161 15.591,20.624 16.842,20.624 C18.727,20.624 19.709,19.579 20.425,18.815 C21.037,18.163 21.335,17.874 22.000,17.874 C22.665,17.874 22.963,18.163 23.575,18.815 C24.291,19.579 25.273,20.624 27.158,20.624 C28.409,20.624 29.258,20.161 29.899,19.627 C30.049,20.126 30.155,20.644 30.208,21.178 C29.579,21.543 29.117,22.021 28.731,22.434 C28.120,23.086 27.822,23.375 27.158,23.375 C26.491,23.375 26.193,23.086 25.580,22.433 C24.865,21.670 23.884,20.624 22.000,20.624 ZM28.600,17.069 C28.080,17.617 27.769,17.874 27.158,17.874 C26.491,17.874 26.193,17.585 25.580,16.934 C24.865,16.170 23.884,15.125 22.000,15.125 C20.116,15.125 19.135,16.170 18.419,16.934 C17.807,17.585 17.508,17.874 16.842,17.874 C16.231,17.874 15.920,17.617 15.400,17.069 C16.906,15.058 19.300,13.750 22.000,13.750 C24.700,13.750 27.094,15.058 28.600,17.069 ZM22.000,28.874 C22.665,28.874 22.963,29.163 23.575,29.815 C23.645,29.890 23.719,29.968 23.795,30.047 C23.217,30.176 22.617,30.249 22.000,30.249 C21.383,30.249 20.783,30.176 20.205,30.047 C20.281,29.968 20.355,29.890 20.425,29.815 C21.037,29.163 21.335,28.874 22.000,28.874 ZM26.660,28.801 C26.298,28.681 26.026,28.408 25.580,27.933 C24.864,27.170 23.883,26.124 22.000,26.124 C20.117,26.124 19.136,27.170 18.419,27.933 C17.974,28.408 17.702,28.681 17.340,28.801 C16.115,27.959 15.133,26.793 14.507,25.430 C15.094,25.824 15.837,26.124 16.842,26.124 C18.727,26.124 19.709,25.078 20.425,24.315 C21.037,23.662 21.335,23.375 22.000,23.375 C22.665,23.375 22.963,23.662 23.575,24.315 C24.291,25.078 25.273,26.124 27.158,26.124 C28.163,26.124 28.906,25.824 29.493,25.430 C28.867,26.793 27.885,27.959 26.660,28.801 ZM28.733,13.321 C26.870,11.871 24.537,10.999 22.000,10.999 C19.462,10.999 17.129,11.871 15.266,13.321 L13.299,11.354 C18.342,7.226 25.656,7.226 30.701,11.353 L28.733,13.321 ZM11.095,23.375 C11.101,23.414 11.108,23.453 11.113,23.492 L3.106,25.638 C2.963,24.898 2.874,24.142 2.820,23.375 L11.095,23.375 ZM3.827,28.292 L11.819,26.151 C11.834,26.188 11.846,26.227 11.861,26.265 L4.704,30.395 C4.373,29.715 4.079,29.015 3.827,28.292 ZM15.265,30.677 C17.128,32.126 19.461,32.999 22.000,32.999 C24.538,32.999 26.871,32.127 28.734,30.678 L30.701,32.645 C25.657,36.774 18.342,36.773 13.297,32.644 L15.265,30.677 ZM32.905,20.624 C32.899,20.585 32.892,20.546 32.887,20.506 L40.894,18.361 C41.036,19.101 41.126,19.857 41.180,20.624 L32.905,20.624 ZM37.934,11.211 L30.749,15.359 C30.725,15.328 30.702,15.295 30.678,15.264 L33.663,12.279 C33.665,12.278 33.666,12.278 33.667,12.276 C33.669,12.275 33.669,12.274 33.670,12.272 L36.531,9.411 C37.029,9.986 37.505,10.581 37.934,11.211 ZM34.586,7.467 L32.645,9.409 C26.518,4.222 17.482,4.222 11.354,9.409 L9.413,7.468 C12.792,4.537 17.187,2.749 22.000,2.749 C26.813,2.749 31.207,4.537 34.586,7.467 ZM7.468,9.412 L13.322,15.265 C13.297,15.296 13.275,15.328 13.250,15.360 L6.066,11.212 C6.494,10.581 6.970,9.987 7.468,9.412 ZM6.065,32.786 L13.250,28.638 C13.274,28.669 13.297,28.701 13.320,28.732 L7.468,34.586 C6.970,34.011 6.494,33.417 6.065,32.786 ZM9.412,36.530 L11.353,34.589 C14.417,37.183 18.205,38.492 22.000,38.492 C25.794,38.492 29.582,37.183 32.646,34.590 L34.587,36.531 C31.208,39.461 26.813,41.249 22.000,41.249 C17.186,41.249 12.791,39.461 9.412,36.530 ZM36.531,34.587 L30.678,28.734 C30.702,28.703 30.725,28.670 30.749,28.640 L37.934,32.787 C37.505,33.418 37.030,34.011 36.531,34.587 Z"/>
</svg>