<svg xmlns="http://www.w3.org/2000/svg" width="49" height="50" viewBox="0 0 49 50">
  <metadata><?xpacket begin="﻿" id="W5M0MpCehiHzreSzNTczkc9d"?>
<x:xmpmeta xmlns:x="adobe:ns:meta/" x:xmptk="Adobe XMP Core 5.6-c142 79.160924, 2017/07/13-01:06:39        ">
   <rdf:RDF xmlns:rdf="http://www.w3.org/1999/02/22-rdf-syntax-ns#">
      <rdf:Description rdf:about=""/>
   </rdf:RDF>
</x:xmpmeta>
                                                                                                    
                                                                                                    
                                                                                                    
                                                                                                    
                                                                                                    
                                                                                                    
                                                                                                    
                                                                                                    
                                                                                                    
                                                                                                    
                                                                                                    
                                                                                                    
                                                                                                    
                                                                                                    
                                                                                                    
                                                                                                    
                                                                                                    
                                                                                                    
                                                                                                    
                                                                                                    
                           
<?xpacket end="w"?></metadata>
<defs>
    <style>
      .cls-1 {
        fill: #6684f2;
        fill-rule: evenodd;
      }
    </style>
  </defs>
  <path id="recycle3" class="cls-1" d="M681.544,1651.47l-7.554-14.98,7.027,1.17c3.384-13.57,14.155-15.66,14.622-15.75l0.359,1.96-0.18-.98,0.182,0.98c-0.424.07-10.415,2.08-13.237,15.13l-0.2.93-5.018-.83,4.477,8.87,6.816-7.5-4.212-.7,0.33-1.96,7.819,1.29Zm28.852,18.54-2.458-6.63c-13.571,3.79-20.731-4.45-21.035-4.81l1.536-1.28c0.278,0.33,6.975,7.94,19.812,3.92l0.914-.29,1.755,4.74,5.568-8.25-9.953-2.16,1.473,3.97-1.882.69-2.735-7.38,16.4,3.56Zm11.676-22.45-1.86-.74,0.93,0.37-0.931-.37c0.159-.39,3.776-9.84-5.865-19.16l-0.685-.66,3.38-3.77-9.962-.98,2.777,9.72,2.838-3.16,1.5,1.32-5.268,5.87-4.577-16.01,16.81,1.64-4.735,5.28C726.2,1636.98,722.249,1647.13,722.072,1647.56Z" transform="translate(-674 -1620)"/>
</svg>
