<svg xmlns="http://www.w3.org/2000/svg" width="47" height="47" viewBox="0 0 47 47">
  <metadata><?xpacket begin="﻿" id="W5M0MpCehiHzreSzNTczkc9d"?>
<x:xmpmeta xmlns:x="adobe:ns:meta/" x:xmptk="Adobe XMP Core 5.6-c142 79.160924, 2017/07/13-01:06:39        ">
   <rdf:RDF xmlns:rdf="http://www.w3.org/1999/02/22-rdf-syntax-ns#">
      <rdf:Description rdf:about=""/>
   </rdf:RDF>
</x:xmpmeta>
                                                                                                    
                                                                                                    
                                                                                                    
                                                                                                    
                                                                                                    
                                                                                                    
                                                                                                    
                                                                                                    
                                                                                                    
                                                                                                    
                                                                                                    
                                                                                                    
                                                                                                    
                                                                                                    
                                                                                                    
                                                                                                    
                                                                                                    
                                                                                                    
                                                                                                    
                                                                                                    
                           
<?xpacket end="w"?></metadata>
<defs>
    <style>
      .cls-1 {
        fill: #6684f2;
        fill-rule: evenodd;
      }
    </style>
  </defs>
  <path id="target" class="cls-1" d="M1168.5,1804a23.5,23.5,0,1,1,23.5-23.5A23.524,23.524,0,0,1,1168.5,1804Zm0-45.19a21.69,21.69,0,1,0,21.69,21.69A21.714,21.714,0,0,0,1168.5,1758.81Zm0.12,40.45a18.985,18.985,0,1,1,18.98-18.98A19.011,19.011,0,0,1,1168.62,1799.26Zm0-36.16a17.175,17.175,0,1,0,17.17,17.18A17.2,17.2,0,0,0,1168.62,1763.1Zm-0.01,32.09a14.465,14.465,0,1,1,14.46-14.47A14.483,14.483,0,0,1,1168.61,1795.19Zm0-27.12a12.655,12.655,0,1,0,12.66,12.65A12.671,12.671,0,0,0,1168.61,1768.07Zm-0.22,22.82a9.94,9.94,0,1,1,9.94-9.94A9.955,9.955,0,0,1,1168.39,1790.89Zm0-18.07a8.135,8.135,0,1,0,8.13,8.13A8.145,8.145,0,0,0,1168.39,1772.82Zm0.11,4.06a4.1,4.1,0,1,1-3.62,4.07A3.863,3.863,0,0,1,1168.5,1776.88Z" transform="translate(-1145 -1757)"/>
</svg>
