<svg xmlns="http://www.w3.org/2000/svg" width="49" height="46" viewBox="0 0 49 46">
  <metadata><?xpacket begin="﻿" id="W5M0MpCehiHzreSzNTczkc9d"?>
<x:xmpmeta xmlns:x="adobe:ns:meta/" x:xmptk="Adobe XMP Core 5.6-c142 79.160924, 2017/07/13-01:06:39        ">
   <rdf:RDF xmlns:rdf="http://www.w3.org/1999/02/22-rdf-syntax-ns#">
      <rdf:Description rdf:about=""/>
   </rdf:RDF>
</x:xmpmeta>
                                                                                                    
                                                                                                    
                                                                                                    
                                                                                                    
                                                                                                    
                                                                                                    
                                                                                                    
                                                                                                    
                                                                                                    
                                                                                                    
                                                                                                    
                                                                                                    
                                                                                                    
                                                                                                    
                                                                                                    
                                                                                                    
                                                                                                    
                                                                                                    
                                                                                                    
                                                                                                    
                           
<?xpacket end="w"?></metadata>
<defs>
    <style>
      .cls-1 {
        fill: #6684f2;
        fill-rule: evenodd;
      }
    </style>
  </defs>
  <path id="vector" class="cls-1" d="M680.75,1804.36a4.545,4.545,0,1,1,4.5-4.55A4.53,4.53,0,0,1,680.75,1804.36Zm0-7.07a2.525,2.525,0,1,0,2.5,2.52A2.513,2.513,0,0,0,680.75,1797.29Zm18-11.12a4.545,4.545,0,1,1,4.5-4.55A4.53,4.53,0,0,1,698.75,1786.17Zm0-7.07a2.525,2.525,0,1,0,2.5,2.52A2.513,2.513,0,0,0,698.75,1779.1Zm-17,17.93h-2A16.1,16.1,0,0,1,696,1780.85v2.02A13.963,13.963,0,0,0,681.75,1797.03Zm35.5-29.55a4.55,4.55,0,1,1,4.5-4.55A4.53,4.53,0,0,1,717.25,1767.48Zm0-7.08a2.53,2.53,0,1,0,2.5,2.53A2.521,2.521,0,0,0,717.25,1760.4ZM702,1782.13v-2.02c8,0,14.018-6.32,14.018-14.4h2A16.111,16.111,0,0,1,702,1782.13Zm14,0.87H702v-2h14v2Zm-20,0H681v-2h15v2Zm27,2.92h-8V1778h8v7.92Zm-6-1.92h4v-4h-4v4Zm-35,1.92h-8V1778h8v7.92Zm-6-1.92h4v-4h-4v4Z" transform="translate(-674 -1758.38)"/>
</svg>
