<svg width="33" height="33" viewBox="0 0 33 33" fill="none" xmlns="http://www.w3.org/2000/svg">
<mask id="mask0" mask-type="alpha" maskUnits="userSpaceOnUse" x="0" y="0" width="33" height="33">
<rect width="33" height="33" fill="#C4C4C4"/>
</mask>
<g mask="url(#mask0)">
<path d="M16.4442 29.8885C9.03082 29.8885 3 23.8577 3 16.4442C3 9.03082 9.03082 3 16.4442 3C23.8577 3 29.8885 9.03169 29.8885 16.4442C29.8885 16.8685 29.5448 17.213 29.1197 17.213C28.6955 17.213 28.3509 16.8693 28.3509 16.4442C28.3509 9.87839 23.0092 4.53584 16.4434 4.53584C9.87666 4.53584 4.53498 9.87839 4.53498 16.4442C4.53498 23.0101 9.87666 28.3518 16.4434 28.3518C20.644 28.3518 24.5788 26.1 26.7129 22.4759C26.9285 22.1097 27.3995 21.9894 27.7648 22.2041C28.1301 22.4188 28.2514 22.8898 28.0375 23.256C25.6299 27.3466 21.1868 29.8885 16.4442 29.8885Z" fill="#010002"/>
<path d="M29.1197 17.213C28.9873 17.213 28.8522 17.1784 28.7301 17.1065L23.9157 14.2634C23.5503 14.0478 23.4291 13.5769 23.6447 13.2115C23.8612 12.8462 24.3321 12.725 24.6975 12.9414L28.8981 15.4218L31.6018 11.5493C31.8451 11.2013 32.3239 11.1164 32.671 11.3588C33.0191 11.6012 33.1039 12.08 32.8615 12.428L29.75 16.8832C29.6011 17.097 29.363 17.213 29.1197 17.213Z" fill="#010002"/>
</g>
</svg>
