<svg xmlns="http://www.w3.org/2000/svg" viewBox="0 0 73.08 110.8625" overflow="visible" enable-background="new 0 0 73.08 88.69" xml:space="preserve" x="0px" y="0px"><path d="M36.54,2.83c-18.62,0-33.71,15.09-33.71,33.71c0,18.62,15.09,33.71,33.71,33.71c18.62,0,33.71-15.09,33.71-33.71  C70.25,17.93,55.16,2.83,36.54,2.83z M10.69,78.36c0.49-0.08,5.51-0.96,6.81-1.19c1.58-0.3,3.02,0.58,3.53,2.03  c0.47,1.31,2.44,6.63,2.44,6.63l7.61-13.16C13.49,70.04,0,54.87,0,36.54C0,16.36,16.36,0,36.54,0s36.54,16.36,36.54,36.54  c0,11.89-5.68,22.45-14.47,29.13l6.58,11.42c1.5,2.6-1.1,4.41-2.98,4.07c0,0-5.49-0.95-6.86-1.2c-0.23-0.04-0.32,0.11-0.34,0.18  c-0.45,1.26-2.26,6.18-2.39,6.54c-0.63,1.81-3.51,3.18-5.02,0.57l-6.71-11.62c0.98-0.12,1.95-0.27,2.9-0.46l6.11,10.67  c0,0,1.97-5.33,2.44-6.63c0.51-1.46,1.95-2.33,3.53-2.03c1.3,0.23,6.32,1.1,6.81,1.19l-6.38-11.06c-5.69,3.67-12.47,5.79-19.75,5.79  c-0.84,0-1.66-0.03-2.49-0.08l-8.29,14.24c-1.51,2.61-4.39,1.24-5.02-0.57c-0.13-0.36-1.94-5.28-2.39-6.54  c-0.02-0.07-0.12-0.22-0.34-0.18c-1.37,0.25-6.86,1.2-6.86,1.2c-1.88,0.34-4.48-1.47-2.98-4.07l5.3-9.17  c0.75,0.57,1.53,1.11,2.32,1.63L10.69,78.36z M19.25,48.56c-1.83,0-3.26,1.44-3.26,3.16s1.43,3.16,3.26,3.16h34.72  c1.83,0,3.26-1.44,3.26-3.16s-1.43-3.16-3.26-3.16H19.25z M19.25,45.72h34.72c3.34,0,6.1,2.65,6.1,5.99c0,3.34-2.76,5.99-6.1,5.99  H19.25c-3.34,0-6.1-2.65-6.1-5.99C13.16,48.37,15.92,45.72,19.25,45.72z M19.25,50.3H51c1.89,0,1.89,2.83,0,2.83H19.25  C17.37,53.13,17.37,50.3,19.25,50.3z M19.25,14.53h34.72c3.34,0,6.1,2.65,6.1,5.99c0,3.34-2.76,5.99-6.1,5.99H19.25  c-3.34,0-6.1-2.65-6.1-5.99C13.16,17.19,15.92,14.53,19.25,14.53z M19.25,17.37c-1.83,0-3.26,1.44-3.26,3.16s1.43,3.16,3.26,3.16  h34.72c1.83,0,3.26-1.44,3.26-3.16s-1.43-3.16-3.26-3.16H19.25z M19.25,19.11h21.63c1.89,0,1.89,2.83,0,2.83H19.25  C17.37,21.94,17.37,19.11,19.25,19.11z M19.25,30.1h34.72c3.34,0,6.1,2.65,6.1,5.99c0,3.34-2.76,5.99-6.1,5.99H19.25  c-3.34,0-6.1-2.65-6.1-5.99C13.16,32.75,15.92,30.1,19.25,30.1z M19.25,32.93c-1.83,0-3.26,1.44-3.26,3.16s1.43,3.16,3.26,3.16  h34.72c1.83,0,3.26-1.44,3.26-3.16s-1.43-3.16-3.26-3.16H19.25z M19.25,34.67h13.5c1.89,0,1.89,2.83,0,2.83h-13.5  C17.37,37.5,17.37,34.67,19.25,34.67z"/><text x="0" y="103.69" fill="#000000" font-size="5px" font-weight="bold" font-family="'Helvetica Neue', Helvetica, Arial-Unicode, Arial, Sans-serif">Created by Jesus Puertas</text><text x="0" y="108.69" fill="#000000" font-size="5px" font-weight="bold" font-family="'Helvetica Neue', Helvetica, Arial-Unicode, Arial, Sans-serif">from the Noun Project</text></svg>