<svg width="150" height="28" viewBox="0 0 150 28" fill="none" xmlns="http://www.w3.org/2000/svg">
<path d="M25.486 7.69347C23.7863 6.97782 21.9972 7.42511 20.5659 8.40913C20.0291 8.85642 19.1346 9.57207 18.0611 10.6456C16.9876 11.6296 16.1825 12.3452 15.5563 12.882C15.4668 12.9714 15.3774 12.9714 15.2879 13.0609C15.2879 12.9714 15.3774 12.882 15.3774 12.7925C15.6458 12.0769 16.093 11.0928 16.7192 9.75098C17.4349 8.40913 17.7927 7.33565 18.0611 6.61999C18.5978 5.00977 18.5084 3.04172 17.1665 1.69987C15.3774 -0.178726 12.4253 0.000187936 10.8151 1.69987C9.56269 3.04172 9.47324 4.92031 9.92052 6.61999C10.0994 7.33565 10.5467 8.31967 11.2624 9.75098C11.8886 11.0928 12.3359 12.0769 12.6042 12.7925C12.6042 12.882 12.6937 12.9714 12.6937 13.0609C12.6042 12.9714 12.5148 12.9714 12.5148 12.882C11.8886 12.4347 11.0835 11.6296 10.0994 10.6456C9.02595 9.57207 8.13138 8.85642 7.50519 8.40913C6.07388 7.42511 4.28474 6.88836 2.4956 7.69347C0.169726 8.76696 -0.635386 11.719 0.527553 13.7765C1.42212 15.3868 3.21126 16.1024 4.91094 16.1024C5.62659 16.1024 6.70007 16.013 8.22084 15.834C9.65215 15.6551 10.7256 15.5657 11.5307 15.4762C11.6202 15.4762 11.7097 15.4762 11.7991 15.4762C11.7097 15.5657 11.7097 15.5657 11.6202 15.6551C10.994 16.1024 10.01 16.6392 8.75758 17.2654C7.41573 17.981 6.4317 18.6072 5.89496 19.0545C4.55311 20.128 3.47963 21.6487 3.65854 23.5273C4.01637 26.1216 6.52116 27.7318 8.84704 27.2845C10.6362 26.9267 11.8886 25.4059 12.4253 23.7957C12.6937 23.1695 12.8726 22.0066 13.141 20.4858C13.4093 19.0545 13.5883 17.981 13.8566 17.2654C13.8566 17.1759 13.9461 17.0864 13.9461 16.997C13.9461 17.0864 14.0355 17.1759 14.0355 17.2654C14.2144 17.981 14.4828 19.0545 14.6617 20.4858C14.9301 22.0066 15.1985 23.0801 15.4668 23.7957C16.0036 25.4059 17.1665 26.9267 19.0451 27.2845C21.6394 27.8213 23.8758 25.8532 24.1442 23.5273C24.3231 21.7382 23.339 20.128 21.9972 19.0545C21.4605 18.6072 20.4764 18.0705 19.1346 17.3548C17.8822 16.6392 16.8982 16.1024 16.272 15.6551C16.1825 15.5657 16.093 15.5657 16.0036 15.4762C16.093 15.4762 16.1825 15.4762 16.272 15.4762C16.9876 15.4762 18.1506 15.6551 19.5819 15.834C21.1026 16.013 22.2656 16.1024 22.9812 16.1024C24.6809 16.1024 26.47 15.4762 27.4541 13.7765C28.7959 11.4507 27.633 8.6775 25.486 7.69347Z" fill="#010101"/>
<path d="M46.6873 27.2842H32.6426V0.268188H45.8822C48.2975 0.268188 50.2656 0.894392 51.7863 2.14679C53.3071 3.39918 54.1122 5.09886 54.1122 7.24583C54.1122 10.1979 52.5915 12.166 49.9972 13.0605C53.2177 14.0445 55.0962 16.281 55.0962 19.5909C55.0962 24.4215 51.7863 27.2842 46.6873 27.2842ZM38.7256 10.9136H44.272C46.7768 10.9136 48.1186 9.75061 48.1186 7.87202C48.1186 5.99343 46.8662 5.0094 44.3614 5.0094H38.7256V10.9136ZM44.3614 15.6548H38.7256V22.6324H44.3614C47.403 22.6324 48.9237 21.38 48.9237 19.1436C48.9237 16.9966 47.403 15.6548 44.3614 15.6548Z" fill="#010101"/>
<path d="M75.6713 27.2843H70.5722V25.3163C69.3198 27.1054 67.1729 28 64.3103 28C60.1952 28 57.2432 26.032 57.2432 22.2748C57.2432 18.1598 60.2847 16.1917 65.7416 15.2971L70.3039 14.5815V14.3131C70.3039 12.524 69.0515 11.5399 66.994 11.5399C66.1889 11.5399 65.3837 11.7189 64.7575 11.9872C63.4157 12.524 62.7 13.1502 61.0004 14.7604L57.4221 11.4505C60.1058 8.40895 63.1473 6.88818 66.994 6.88818C72.7192 6.88818 75.7607 9.66134 75.7607 14.1342V27.2843H75.6713ZM70.3039 18.4281L66.994 19.0543C64.0419 19.5911 62.7 20.3962 62.7 21.738C62.7 22.8115 63.6841 23.5272 65.4732 23.5272C68.0674 23.5272 70.3039 22.2748 70.3039 19.2332V18.4281Z" fill="#010101"/>
<path d="M95.5311 11.8082L85.9592 22.6325H95.4416V27.2843H78.8921V22.9903L88.464 12.1661H79.4288V7.60376H95.4416V11.8082H95.5311Z" fill="#010101"/>
<path d="M104.745 27.2844H99.0195V7.5144H104.745V27.2844Z" fill="#010101"/>
<path d="M114.853 27.2842H109.128V0.268188H114.853V27.2842Z" fill="#010101"/>
<path d="M124.873 27.2844H119.147V7.5144H124.873V27.2844Z" fill="#010101"/>
<path d="M101.882 6.26198C103.611 6.26198 105.013 4.86019 105.013 3.13099C105.013 1.40179 103.611 0 101.882 0C100.153 0 98.751 1.40179 98.751 3.13099C98.751 4.86019 100.153 6.26198 101.882 6.26198Z" fill="#010101"/>
<path d="M122.099 6.26198C123.828 6.26198 125.23 4.86019 125.23 3.13099C125.23 1.40179 123.828 0 122.099 0C120.37 0 118.968 1.40179 118.968 3.13099C118.968 4.86019 120.37 6.26198 122.099 6.26198Z" fill="#010101"/>
<path d="M142.764 27.2842H149.116L142.227 15.9231C144.732 13.5078 146.7 10.7346 148.311 7.5142H142.854C140.438 11.6292 137.397 14.0445 135.071 15.4759V14.8497V0.268188H129.346V27.2842H135.071V21.1116V20.9327C135.966 20.5749 136.95 19.9487 138.112 19.233L142.764 27.2842Z" fill="#010101"/>
</svg>
