<svg xmlns="http://www.w3.org/2000/svg" width="44" height="44" viewBox="0 0 44 44">
  <metadata><?xpacket begin="﻿" id="W5M0MpCehiHzreSzNTczkc9d"?>
<x:xmpmeta xmlns:x="adobe:ns:meta/" x:xmptk="Adobe XMP Core 5.6-c142 79.160924, 2017/07/13-01:06:39        ">
   <rdf:RDF xmlns:rdf="http://www.w3.org/1999/02/22-rdf-syntax-ns#">
      <rdf:Description rdf:about=""/>
   </rdf:RDF>
</x:xmpmeta>
                                                                                                    
                                                                                                    
                                                                                                    
                                                                                                    
                                                                                                    
                                                                                                    
                                                                                                    
                                                                                                    
                                                                                                    
                                                                                                    
                                                                                                    
                                                                                                    
                                                                                                    
                                                                                                    
                                                                                                    
                                                                                                    
                                                                                                    
                                                                                                    
                                                                                                    
                                                                                                    
                           
<?xpacket end="w"?></metadata>
<defs>
    <style>
      .cls-1 {
        fill: #fff;
        fill-rule: evenodd;
      }
    </style>
  </defs>
  <path id="logo" class="cls-1" d="M1462,2354h0a22,22,0,1,0-22,22,22.026,22.026,0,0,0,22-22h0Zm-3.11,3.64-8-2.15c0-.04.01-0.08,0.01-0.12h8.28A16.968,16.968,0,0,1,1458.89,2357.64Zm-1.6,4.76-7.15-4.14a0.76,0.76,0,0,1,.04-0.11l7.99,2.14A17.047,17.047,0,0,1,1457.29,2362.4Zm-36.18-12.04,8,2.15c0,0.04-.01.07-0.01,0.11h-8.28A17.03,17.03,0,0,1,1421.11,2350.36Zm1.6-4.76,7.15,4.13c-0.01.04-.03,0.08-0.04,0.12l-7.99-2.14A17.047,17.047,0,0,1,1422.71,2345.6Zm35.46,2.11-7.99,2.14c-0.01-.04-0.03-0.08-0.04-0.12l7.15-4.13A17.047,17.047,0,0,1,1458.17,2347.71Zm-18.17,4.91a4.622,4.622,0,0,0-3.58,1.81,1.789,1.789,0,0,1-3.15,0,6.494,6.494,0,0,0-1.48-1.25,7.884,7.884,0,0,1,.31-1.55,4.1,4.1,0,0,0,2.74.99,4.558,4.558,0,0,0,3.58-1.81,2.029,2.029,0,0,1,1.58-.94,2,2,0,0,1,1.57.94,4.6,4.6,0,0,0,3.59,1.81,4.1,4.1,0,0,0,2.74-.99,7.884,7.884,0,0,1,.31,1.55,6.494,6.494,0,0,0-1.48,1.25,1.789,1.789,0,0,1-3.15,0A4.622,4.622,0,0,0,1440,2352.62Zm6.6-3.55a1.812,1.812,0,0,1-1.44.8,1.974,1.974,0,0,1-1.58-.94,4.445,4.445,0,0,0-7.16,0,1.974,1.974,0,0,1-1.58.94,1.812,1.812,0,0,1-1.44-.8A8.22,8.22,0,0,1,1446.6,2349.07Zm-6.6,11.8a2,2,0,0,1,1.57.94c0.07,0.08.15,0.16,0.23,0.24a8.2,8.2,0,0,1-3.6,0,2.4,2.4,0,0,0,.22-0.24A2.029,2.029,0,0,1,1440,2360.87Zm4.66-.07a2.834,2.834,0,0,1-1.08-.87,4.445,4.445,0,0,0-7.16,0,2.834,2.834,0,0,1-1.08.87,8.2,8.2,0,0,1-2.83-3.37,4.052,4.052,0,0,0,2.33.69,4.558,4.558,0,0,0,3.58-1.81,2.029,2.029,0,0,1,1.58-.94,2,2,0,0,1,1.57.94,4.6,4.6,0,0,0,3.59,1.81,4.052,4.052,0,0,0,2.33-.69A8.2,8.2,0,0,1,1444.66,2360.8Zm2.07-15.48a10.921,10.921,0,0,0-13.46,0l-1.97-1.97a13.793,13.793,0,0,1,17.4,0Zm-17.63,10.05c0,0.04.01,0.08,0.01,0.12l-8,2.15a16.968,16.968,0,0,1-.29-2.27h8.28Zm-7.27,4.92,7.99-2.14c0.01,0.04.03,0.08,0.04,0.11l-7.16,4.14A20.349,20.349,0,0,1,1421.83,2360.29Zm11.43,2.39a10.936,10.936,0,0,0,13.47,0l1.97,1.96a13.767,13.767,0,0,1-17.4,0Zm17.64-10.06c0-.04-0.01-0.07-0.01-0.11l8-2.15a17.03,17.03,0,0,1,.29,2.26h-8.28Zm5.03-9.41-7.18,4.15c-0.02-.03-0.05-0.07-0.07-0.1l2.98-2.98h0.01v-0.01l2.86-2.86A18.488,18.488,0,0,1,1455.93,2343.21Zm-3.34-3.74-1.94,1.94a16.516,16.516,0,0,0-21.3,0l-1.94-1.94A19.151,19.151,0,0,1,1452.59,2339.47Zm-27.12,1.94,5.85,5.86c-0.02.03-.05,0.06-0.07,0.09l-7.18-4.15A18.488,18.488,0,0,1,1425.47,2341.41Zm-1.4,23.38,7.18-4.15c0.02,0.03.05,0.06,0.07,0.09l-5.85,5.86A18.488,18.488,0,0,1,1424.07,2364.79Zm3.34,3.74,1.94-1.94a16.491,16.491,0,0,0,21.3,0l1.94,1.94A19.151,19.151,0,0,1,1427.41,2368.53Zm27.12-1.94-5.85-5.86c0.02-.03.05-0.06,0.07-0.09l7.18,4.15A18.488,18.488,0,0,1,1454.53,2366.59Z" transform="translate(-1418 -2332)"/>
</svg>
