<svg xmlns="http://www.w3.org/2000/svg" width="26" height="55.18" viewBox="0 0 26 55.18">
  <metadata><?xpacket begin="﻿" id="W5M0MpCehiHzreSzNTczkc9d"?>
<x:xmpmeta xmlns:x="adobe:ns:meta/" x:xmptk="Adobe XMP Core 5.6-c142 79.160924, 2017/07/13-01:06:39        ">
   <rdf:RDF xmlns:rdf="http://www.w3.org/1999/02/22-rdf-syntax-ns#">
      <rdf:Description rdf:about=""/>
   </rdf:RDF>
</x:xmpmeta>
                                                                                                    
                                                                                                    
                                                                                                    
                                                                                                    
                                                                                                    
                                                                                                    
                                                                                                    
                                                                                                    
                                                                                                    
                                                                                                    
                                                                                                    
                                                                                                    
                                                                                                    
                                                                                                    
                                                                                                    
                                                                                                    
                                                                                                    
                                                                                                    
                                                                                                    
                                                                                                    
                           
<?xpacket end="w"?></metadata>
<defs>
    <style>
      .cls-1 {
        fill: #6684f2;
        fill-rule: evenodd;
      }
    </style>
  </defs>
  <path id="rocket" class="cls-1" d="M1155,1673.59v-20.33l6.2-8.27,1.6,1.2-5.8,7.73v13.67l4.2-5.6,1.6,1.2Zm26,0-7.8-10.4,1.6-1.2,4.2,5.6v-13.67l-5.8-7.73,1.6-1.2,6.2,8.27v20.33Zm-13,2c-5.14,0-7-16.15-7-27a63.36,63.36,0,0,1,6.11-26.46l0.89-1.72,0.89,1.72a63.36,63.36,0,0,1,6.11,26.46C1175,1659.44,1173.14,1675.59,1168,1675.59Zm0-50.6a62.748,62.748,0,0,0-5,23.6c0,16.41,3.25,25,5,25s5-8.59,5-25A62.7,62.7,0,0,0,1168,1624.99Zm0,24.6a4,4,0,1,1,4-4A4,4,0,0,1,1168,1649.59Zm0-6a2,2,0,1,0,2,2A2.006,2.006,0,0,0,1168,1643.59Zm0,17a4,4,0,1,1,4-4A4,4,0,0,1,1168,1660.59Zm0-6a2,2,0,1,0,2,2A2.006,2.006,0,0,0,1168,1654.59Z" transform="translate(-1155 -1620.41)"/>
</svg>
